<?xml version="1.0" encoding="UTF-8" standalone="no"?>
<svg
   xmlns:dc="http://purl.org/dc/elements/1.1/"
   xmlns:cc="http://creativecommons.org/ns#"
   xmlns:rdf="http://www.w3.org/1999/02/22-rdf-syntax-ns#"
   xmlns:svg="http://www.w3.org/2000/svg"
   xmlns="http://www.w3.org/2000/svg"
   xmlns:xlink="http://www.w3.org/1999/xlink"
   version="1.1"
   id="svg5178"
   viewBox="0 0 744.09448819 1052.3622047"
   height="297mm"
   width="210mm">
  <defs
     id="defs5180">
    <clipPath
       id="clipPath4306"
       clipPathUnits="userSpaceOnUse">
      <path
         id="path4308"
         d="m 1.833113,631.0863 c 2.301415,8.7053 8.398967,17.8629 14.174147,24.565 3.28934,-2.8034 9.265,-3.9934 15.96557,-3.9934 11.79575,0.002 25.82877,3.6903 31.34415,8.755 6.57227,-5.8233 11.985,-13.3177 15.81642,-18.6631 0,0 -15.62076,6.2291 -34.30632,6.2291 -14.43397,0 -30.69623,-3.7176 -42.993967,-16.8926" />
    </clipPath>
    <linearGradient
       id="linearGradient4318"
       spreadMethod="pad"
       gradientTransform="matrix(7.269104,-93.46375,-93.46375,-7.269104,39.73333,670.6679)"
       gradientUnits="userSpaceOnUse"
       y2="0"
       x2="1"
       y1="0"
       x1="0">
      <stop
         id="stop4320"
         offset="0"
         style="stop-opacity:1;stop-color:#fcd0a0" />
      <stop
         id="stop4322"
         offset="1"
         style="stop-opacity:1;stop-color:#fde1b4" />
    </linearGradient>
    <clipPath
       id="clipPath4276"
       clipPathUnits="userSpaceOnUse">
      <path
         id="path4278"
         d="m 33.10028,578.6766 c -12.55754,6.4744 -18.36481,12.8061 -24.603488,31.7114 -22.287642,14.4099 10.663488,51.7442 18.356788,55.0255 2.23085,-0.9446 2.74085,-1.2044 2.82906,-1.2702 4.90755,3.6229 9.65151,5.1209 14.16453,5.1209 16.22057,0 29.42443,-19.3736 36.34792,-28.9915 13.33538,-18.5332 1.47548,-46.0652 -15.02254,-57.1569 5.09198,7.2812 10.80462,13.3916 10.90726,22.7897 -1.55566,-7.0037 -9.18962,-14.7403 -12.50943,-19.0015 1.85075,2.4906 3.32783,5.3213 4.4649,8.3316 0,0.002 0.0016,0.003 0.0016,0.005 1.34556,3.5636 2.2132,7.3757 2.65905,11.1719 0.66397,5.6565 0.38651,11.2761 -0.64952,15.9687 -0.46029,2.0849 -1.07133,3.987 -1.81548,5.6277 -4.35103,9.5938 -14.90547,12.9184 -21.93802,15.3866 2.83387,-3.8074 10.9618,-8.8978 17.96708,-12.6345 -7.48481,2.4682 -20.41283,6.2338 -27.55604,10.4614 -8.72132,-6.5755 -14.21905,-14.163 -15.8966,-23.0655 -0.64953,-3.4401 -0.72651,-7.0759 -0.20208,-10.9265 0.57897,-4.2404 1.89085,-8.7422 3.98057,-13.5262 0.0016,-0.005 0.0032,-0.008 0.0048,-0.0129 2.06406,-4.7215 4.88509,-9.7172 8.50962,-15.0145 m -17.09302,76.9747 c -5.77518,-6.7021 -11.872732,-15.8597 -14.174147,-24.565 12.297737,13.175 28.559997,16.8926 42.993967,16.8926 18.68556,0 34.30632,-6.2291 34.30632,-6.2291 -3.83142,5.3454 -9.24415,12.8398 -15.81642,18.6631 -5.51538,-5.0647 -19.5484,-8.7534 -31.34415,-8.755 -6.70057,0 -12.67623,1.19 -15.96557,3.9934" />
    </clipPath>
    <clipPath
       id="clipPath4282"
       clipPathUnits="userSpaceOnUse">
      <path
         id="path4284"
         d="m 0,710.5822 594.3441,0 0,-578.486 -594.3441,0 0,578.486 z" />
    </clipPath>
    <linearGradient
       id="linearGradient4294"
       spreadMethod="pad"
       gradientTransform="matrix(7.269104,-93.46375,-93.46375,-7.269104,39.73333,670.6679)"
       gradientUnits="userSpaceOnUse"
       y2="0"
       x2="1"
       y1="0"
       x1="0">
      <stop
         id="stop4296"
         offset="0"
         style="stop-opacity:1;stop-color:#fabc77" />
      <stop
         id="stop4298"
         offset="1"
         style="stop-opacity:1;stop-color:#fcd392" />
    </linearGradient>
    <clipPath
       id="clipPath4244"
       clipPathUnits="userSpaceOnUse">
      <path
         id="path4246"
         d="m 0,132 595,0 0,578 -595,0 0,-578 z" />
    </clipPath>
    <clipPath
       id="clipPath4220"
       clipPathUnits="userSpaceOnUse">
      <path
         id="path4222"
         d="m 54.25245,609.8058 c -0.09141,0.2037 -0.17802,0.4138 -0.2582,0.6255 0.15717,-0.1331 0.24698,-0.2005 0.24698,-0.2005 l 0.01122,-0.3752 c 0,-0.0177 0,-0.0337 0,-0.0498" />
    </clipPath>
    <radialGradient
       id="radialGradient4232"
       spreadMethod="pad"
       gradientTransform="matrix(9.870104,-1.789009,-1.789009,-9.870104,62.95822,614.2509)"
       gradientUnits="userSpaceOnUse"
       r="1"
       cy="0"
       cx="0"
       fy="0"
       fx="0">
      <stop
         id="stop4234"
         offset="0"
         style="stop-opacity:1;stop-color:#ec4b27" />
      <stop
         id="stop4236"
         offset="1"
         style="stop-opacity:1;stop-color:#f1542d" />
    </radialGradient>
    <clipPath
       id="clipPath4206"
       clipPathUnits="userSpaceOnUse">
      <path
         id="path4208"
         d="m 0,132 595,0 0,578 -595,0 0,-578 z" />
    </clipPath>
    <clipPath
       id="clipPath4182"
       clipPathUnits="userSpaceOnUse">
      <path
         id="path4184"
         d="m 69.73849,605.6296 c 0.79387,6.4183 0.16519,13.0836 -1.18679,17.7121 0.52443,-0.2775 1.02481,-0.5982 1.49472,-0.9607 1.03603,-4.6926 1.31349,-10.3122 0.64952,-15.9687 -0.30311,-0.2791 -0.62386,-0.5405 -0.95745,-0.7827" />
    </clipPath>
    <radialGradient
       id="radialGradient4194"
       spreadMethod="pad"
       gradientTransform="matrix(9.870104,-1.789009,-1.789009,-9.870104,62.95822,614.2509)"
       gradientUnits="userSpaceOnUse"
       r="1"
       cy="0"
       cx="0"
       fy="0"
       fx="0">
      <stop
         id="stop4196"
         offset="0"
         style="stop-opacity:1;stop-color:#f57850" />
      <stop
         id="stop4198"
         offset="1"
         style="stop-opacity:1;stop-color:#f6885a" />
    </radialGradient>
    <clipPath
       id="clipPath4158"
       clipPathUnits="userSpaceOnUse">
      <path
         id="path4160"
         d="m 63.72755,603.6875 c -4.10085,0 -7.81038,2.4281 -9.4751,6.1183 0,0.0161 0,0.0321 0,0.0498 l -0.01122,0.3752 c 0,0 -0.08981,0.0674 -0.24698,0.2005 -0.22934,0.6175 -0.40576,1.2638 -0.51802,1.939 -0.96868,5.6773 2.85311,11.0564 8.52726,12.0219 0.58538,0.0994 1.16594,0.1459 1.73849,0.1459 1.71444,0 3.3567,-0.4282 4.80972,-1.1964 1.35198,-4.6285 1.98066,-11.2938 1.18679,-17.7121 -1.22689,-0.8901 -2.66066,-1.5252 -4.25641,-1.7946 -0.58859,-0.0994 -1.17557,-0.1475 -1.75453,-0.1475" />
    </clipPath>
    <radialGradient
       id="radialGradient4170"
       spreadMethod="pad"
       gradientTransform="matrix(9.870104,-1.789009,-1.789009,-9.870104,62.95822,614.2509)"
       gradientUnits="userSpaceOnUse"
       r="1"
       cy="0"
       cx="0"
       fy="0"
       fx="0">
      <stop
         id="stop4172"
         offset="0"
         style="stop-opacity:1;stop-color:#f68c61" />
      <stop
         id="stop4174"
         offset="1"
         style="stop-opacity:1;stop-color:#f89c6c" />
    </radialGradient>
    <clipPath
       id="clipPath4134"
       clipPathUnits="userSpaceOnUse">
      <path
         id="path4136"
         d="m 22.07594,605.2992 c -0.55971,0.579 -1.05528,1.2269 -1.47066,1.931 -0.52443,3.8506 -0.44745,7.4864 0.20208,10.9265 0.53085,0.8291 1.17717,1.5813 1.92132,2.2325 -0.81953,-2.5003 -1.38726,-8.8465 -0.65274,-15.09" />
    </clipPath>
    <radialGradient
       id="radialGradient4146"
       spreadMethod="pad"
       gradientTransform="matrix(-10.27361,-1.764792,1.764792,-10.27361,29.58754,612.5358)"
       gradientUnits="userSpaceOnUse"
       r="1"
       cy="0"
       cx="0"
       fy="0"
       fx="0">
      <stop
         id="stop4148"
         offset="0"
         style="stop-opacity:1;stop-color:#f57850" />
      <stop
         id="stop4150"
         offset="1"
         style="stop-opacity:1;stop-color:#f6885a" />
    </radialGradient>
    <clipPath
       id="clipPath4110"
       clipPathUnits="userSpaceOnUse">
      <path
         id="path4112"
         d="m 29.57038,602.1093 c -2.88198,0 -5.57151,1.1981 -7.49444,3.1899 -0.73452,6.2435 -0.16679,12.5897 0.65274,15.09 1.40009,1.2236 3.145,2.0897 5.11123,2.4249 0.58698,0.0994 1.17235,0.1475 1.74811,0.1475 4.99094,0 9.40934,-3.5892 10.27377,-8.6748 0.96066,-5.6838 -2.86273,-11.0676 -8.54009,-12.0299 -0.58859,-0.0994 -1.17396,-0.1476 -1.75132,-0.1476" />
    </clipPath>
    <radialGradient
       id="radialGradient4122"
       spreadMethod="pad"
       gradientTransform="matrix(-10.27361,-1.764792,1.764792,-10.27361,29.58754,612.5358)"
       gradientUnits="userSpaceOnUse"
       r="1"
       cy="0"
       cx="0"
       fy="0"
       fx="0">
      <stop
         id="stop4124"
         offset="0"
         style="stop-opacity:1;stop-color:#f68c61" />
      <stop
         id="stop4126"
         offset="1"
         style="stop-opacity:1;stop-color:#f89c6c" />
    </radialGradient>
    <clipPath
       id="clipPath4098"
       clipPathUnits="userSpaceOnUse">
      <path
         id="path4100"
         d="m 0,132 595,0 0,578 -595,0 0,-578 z" />
    </clipPath>
    <clipPath
       id="clipPath4074"
       clipPathUnits="userSpaceOnUse">
      <path
         id="path4076"
         d="m 88.68708,506.7762 c -2.05283,0.3384 -6.22585,0.393 -8.69085,0.393 -0.25981,0 -0.50198,-0.002 -0.71849,-0.002 -0.34482,-0.002 -0.63029,-0.005 -0.83717,-0.006 l -0.3384,0.1107 c 2.36236,5.1529 7.31321,13.6625 8.20651,14.4757 l 0.2117,0.1315 0.07217,0.0288 c -1.34557,-1.1675 0.47311,-2.5131 0.48754,-3.6341 0.01444,-0.7201 -0.75377,-1.1579 -0.77943,-1.9197 -0.02726,-0.826 0.41859,-1.1756 0.97028,-1.6984 0.96227,-0.9078 0.77623,-0.7602 0.22293,-1.862 -0.34161,-0.672 -0.70727,-1.8444 -0.31755,-2.6061 0.34962,-0.6881 1.43217,-0.8212 1.75934,-1.615 0.22613,-0.5469 0.05453,-0.9816 0.0016,-1.5156 -0.08981,-0.093 -0.1732,-0.1861 -0.25018,-0.2807" />
    </clipPath>
    <linearGradient
       id="linearGradient4086"
       spreadMethod="pad"
       gradientTransform="matrix(-9.929925,-7.774292,7.774292,-9.929925,88.4417,515.0004)"
       gradientUnits="userSpaceOnUse"
       y2="0"
       x2="1"
       y1="0"
       x1="0">
      <stop
         id="stop4088"
         offset="0"
         style="stop-opacity:1;stop-color:#f57748" />
      <stop
         id="stop4090"
         offset="1"
         style="stop-opacity:1;stop-color:#f89c6c" />
    </linearGradient>
    <clipPath
       id="clipPath4050"
       clipPathUnits="userSpaceOnUse">
      <path
         id="path4052"
         d="m 88.68708,506.7762 c 0.07698,0.0946 0.16037,0.1877 0.25018,0.2807 -0.0016,-0.003 -0.0016,-0.006 -0.0016,-0.01 l 0.0032,-0.0289 -0.25179,-0.2422" />
    </clipPath>
    <linearGradient
       id="linearGradient4062"
       spreadMethod="pad"
       gradientTransform="matrix(-9.929925,-7.774292,7.774292,-9.929925,88.4417,515.0004)"
       gradientUnits="userSpaceOnUse"
       y2="0"
       x2="1"
       y1="0"
       x1="0">
      <stop
         id="stop4064"
         offset="0"
         style="stop-opacity:1;stop-color:#f2542f" />
      <stop
         id="stop4066"
         offset="1"
         style="stop-opacity:1;stop-color:#f46d41" />
    </linearGradient>
    <clipPath
       id="clipPath4026"
       clipPathUnits="userSpaceOnUse">
      <path
         id="path4028"
         d="m 88.68708,506.7762 c -2.06085,0.3384 -6.24991,0.393 -8.7101,0.393 -0.2534,0 -0.48755,-0.002 -0.69924,-0.002 0.21651,0 0.45868,0.002 0.71849,0.002 2.465,0 6.63802,-0.0546 8.69085,-0.393" />
    </clipPath>
    <clipPath
       id="clipPath4008"
       clipPathUnits="userSpaceOnUse">
      <path
         id="path4010"
         d="m 0,132 595,0 0,578 -595,0 0,-578 z" />
    </clipPath>
    <clipPath
       id="clipPath3990"
       clipPathUnits="userSpaceOnUse">
      <path
         id="path3992"
         d="m 0,710.5822 594.3441,0 0,-578.486 -594.3441,0 0,578.486 z" />
    </clipPath>
    <clipPath
       id="clipPath3996"
       clipPathUnits="userSpaceOnUse">
      <path
         id="path3998"
         d="m 0,132 595,0 0,578 -595,0 0,-578 z" />
    </clipPath>
    <clipPath
       id="clipPath3950"
       clipPathUnits="userSpaceOnUse">
      <path
         id="path3952"
         d="m 0,132 595,0 0,578 -595,0 0,-578 z" />
    </clipPath>
    <clipPath
       id="clipPath3934"
       clipPathUnits="userSpaceOnUse">
      <path
         id="path3936"
         d="m 0,710.5822 594.3441,0 0,-578.486 -594.3441,0 0,578.486 z" />
    </clipPath>
    <clipPath
       id="clipPath3940"
       clipPathUnits="userSpaceOnUse">
      <path
         id="path3942"
         d="m 0,132 595,0 0,578 -595,0 0,-578 z" />
    </clipPath>
    <linearGradient
       y2="0"
       x2="1"
       y1="0"
       x1="0"
       spreadMethod="pad"
       gradientTransform="matrix(-9.929925,-7.774292,7.774292,-9.929925,88.4417,515.0004)"
       gradientUnits="userSpaceOnUse"
       id="linearGradient5543"
       xlink:href="#linearGradient4086" />
    <linearGradient
       y2="0"
       x2="1"
       y1="0"
       x1="0"
       spreadMethod="pad"
       gradientTransform="matrix(-9.929925,-7.774292,7.774292,-9.929925,88.4417,515.0004)"
       gradientUnits="userSpaceOnUse"
       id="linearGradient5545"
       xlink:href="#linearGradient4086" />
  </defs>
  <metadata
     id="metadata5183">
    <rdf:RDF>
      <cc:Work
         rdf:about="">
        <dc:format>image/svg+xml</dc:format>
        <dc:type
           rdf:resource="http://purl.org/dc/dcmitype/StillImage" />
        <dc:title></dc:title>
      </cc:Work>
    </rdf:RDF>
  </metadata>
  <g
     id="layer1">
    <g
       transform="matrix(1.8922193,0,0,-1.8922193,235.23798,1283.2573)"
       id="g3930">
      <g
         clip-path="url(#clipPath3934)"
         id="g3932">
        <g
           clip-path="url(#clipPath3940)"
           id="g3938">
          <path
             id="path3944"
             style="fill:#dfdddb;fill-opacity:1;fill-rule:nonzero;stroke:none"
             d="m 11.97377,132 c -6.031789,0 -11.2392417,2.5003 -11.96093981,10.5512 -0.59499999,6.6525 19.32707981,20.9966 29.73074981,23.189 0.73293,-0.2534 1.62463,-0.4427 2.66227,-0.4427 0.82273,0 1.73689,0.1187 2.73443,0.4186 5.64689,-0.5821 18.22368,-1.8251 26.60661,-2.2533 1.20603,-0.0625 2.44575,-0.0882 3.71594,-0.0882 3.87151,0 8.01726,0.2454 12.26887,0.4908 4.25321,0.2454 8.61066,0.4907 12.91038,0.4907 10.61052,0 20.86032,-1.4947 28.24082,-8.1744 19.6511,-17.7891 3.5925,-22.8458 -9.0196,-22.8458 -3.1578,0 -6.1008,0.3176 -8.2113,0.8308 -11.28417,2.7441 -23.20021,13.021 -39.41917,13.021 -10.96821,0 -29.09245,-9.4719 -38.00943,-12.7019 C 20.51547,133.1451 16.05538,132 11.97377,132" />
        </g>
      </g>
    </g>
    <g
       transform="matrix(1.8922193,0,0,-1.8922193,235.23798,1283.2573)"
       id="g3946">
      <g
         clip-path="url(#clipPath3950)"
         id="g3948">
        <path
           id="path3954"
           style="fill:#f89c6d;fill-opacity:1;fill-rule:nonzero;stroke:none"
           d="m 37.32783,172.9492 -8.26906,-2.6511 c -2.09292,-10.8848 -17.255,-19.1442 -21.299713,-23.6284 -1.813868,-1.6743 7.103113,-6.7599 12.405193,-8.2931 6.16169,6.1633 8.415,10.7838 17.69122,18.0409 1.44019,1.1274 -0.63349,8.8817 -0.52764,16.5317" />
        <path
           id="path3956"
           style="fill:#f89c6d;fill-opacity:1;fill-rule:nonzero;stroke:none"
           d="m 92.30519,172.9492 8.27061,-2.6511 c 2.0914,-10.8848 17.2534,-19.1442 21.2998,-23.6284 1.8122,-1.6743 -7.1031,-6.7599 -12.4068,-8.2931 -6.1617,6.1633 -8.4134,10.7838 -17.68965,18.0409 -1.44179,1.1274 0.63189,8.8817 0.52604,16.5317" />
        <path
           id="path3958"
           style="fill:#f03967;fill-opacity:1;fill-rule:nonzero;stroke:none"
           d="m 24.58585,146.4051 c 0,0 -7.92264,-1.9197 -9.40774,-1.0537 -0.67519,0.3945 -2.43453,3.6646 -2.43453,4.396 0,0.7136 0.87887,1.1851 1.01038,1.9501 -2.56122,-1.9918 -4.782451,-3.6838 -5.994903,-5.0278 -1.310283,-1.2108 2.761693,-8.1696 3.656603,-8.9394 1.10019,-0.9495 6.32689,-0.4202 9.03406,0 7.47198,8.2947 13.41556,14.5687 17.40575,18.6872 0.53245,0.55 0.58698,2.1105 0.37689,4.4119 -0.67038,-0.6222 0.78585,-2.2757 -13.64651,-14.4243" />
        <path
           id="path3960"
           style="fill:#f03967;fill-opacity:1;fill-rule:nonzero;stroke:none"
           d="m 105.0488,146.4051 c 0,0 7.9226,-1.9197 9.4061,-1.0537 0.6752,0.3945 2.4361,3.6646 2.4361,4.396 0,0.7136 -0.8788,1.1851 -1.0119,1.9501 2.5628,-1.9918 4.7824,-3.6838 5.9965,-5.0278 1.3102,-1.2108 -2.7617,-8.1696 -3.6566,-8.9394 -1.1018,-0.9495 -6.3285,-0.4202 -9.0341,0 -7.4736,8.2947 -13.41556,14.5687 -17.40575,18.6872 -0.53245,0.55 -0.58858,2.1105 -0.37849,4.4119 0.67038,-0.6222 -0.78585,-2.2757 13.64814,-14.4243" />
        <path
           id="path3962"
           style="fill:#593a3d;fill-opacity:1;fill-rule:nonzero;stroke:none"
           d="m 98.58717,262.7637 c -3.75764,26.9354 -2.7633,17.6575 -4.34142,39.7094 -1.81707,25.3845 7.85205,80.2705 4.43765,114.3411 -2.31265,23.075 -11.99463,42.3332 -13.345,46.6666 -8.01566,-2.9333 -59.46472,-0.2294 -59.46472,-0.2294 -9.46066,-27.6571 -13.6417,-37.7737 -13.08038,-57.6781 0.46028,-16.397 8.58661,-54.7753 11.73161,-87.5356 2.23886,-23.3541 -4.93802,-36.5612 -4.24038,-57.3637 0.8099,-24.0855 11.0099,-81.2905 7.12556,-93.6251 -0.0032,0.0144 0.45708,-0.4298 1.32151,-0.8757 1.70321,-0.8757 4.97491,-1.7513 9.36123,0.8757 -2.21,23.0558 4.55792,81.6401 4.74075,105.5379 0.1684,21.3895 -2.64462,35.174 -0.58698,56.7672 1.57491,16.522 4.29491,57.9972 8.53689,83.8885 l 10.43255,0 c 3.75443,-21.6669 9.79104,-60.3435 14.67613,-92.5104 3.26208,-21.4746 1.39689,-34.5597 1.17557,-56.1979 -0.22774,-22.4416 11.07405,-60.451 14.10518,-98.1605 2.33831,-1.1724 7.38217,-1.607 10.47908,1.6743 -4.97974,41.5217 0.1588,71.5812 -3.06483,94.7157" />
        <path
           id="path3964"
           style="fill:#6b474b;fill-opacity:1;fill-rule:nonzero;stroke:none"
           d="m 35.01519,307.9404 c -3.25887,0 -7.19132,1.1515 -7.19132,5.8666 -2.99425,26.4254 -20.310191,98.1525 -5.87142,130.5022 3.8234,-1.0135 9.75095,-3.0744 17.82434,-4.6782 -1.68236,-2.983 -4.12009,-5.0551 -7.20254,-6.8336 -2.11057,-1.2189 -4.3751,-2.1571 -6.66208,-2.9879 -1.84915,-0.6736 -3.85708,-1.3343 -5.83934,-1.3824 l -0.0064,0 -0.05133,-0.003 -0.24217,0 c 0.80831,-0.2117 1.65991,-0.3047 2.53397,-0.3047 3.62292,0 7.62434,1.623 10.51273,3.262 3.35189,1.9037 6.26595,4.5002 7.33085,8.1761 4.80811,-0.9398 10.36519,-1.7113 16.67764,-2.0064 -0.05773,-5.6533 0.17321,-11.406 -0.39132,-17.032 -0.10264,-1.1098 -0.35122,-2.1507 -0.65273,-3.214 1.69679,0.1379 2.99745,0.595 4.19547,1.8796 1.4867,1.591 2.51472,3.6181 3.28453,5.6357 1.44981,3.817 2.40245,8.5449 1.39047,12.6233 4.50981,0.085 9.34198,0.425 14.50132,1.1082 0.80189,-1.3584 1.82189,-2.5901 3.05358,-3.6967 2.0817,-1.7545 4.83538,-3.3824 7.65482,-3.3824 0.4282,0 0.86122,0.0385 1.29103,0.1187 -4.37509,0.834 -7.93868,3.7721 -10.75009,7.1304 3.24443,0.4587 6.61236,1.0537 10.11019,1.8026 1.9149,-6.1184 5.88745,-13.9015 5.86179,-33.8636 -0.02887,-24.5891 -4.04792,-91.4023 -6.89142,-94.0982 -1.09858,-1.0409 -4.08481,-4.218 -6.66207,-4.218 -1.48991,0 -2.84349,1.0633 -3.6133,4.218 -6.31727,25.8319 -18.7834,100.68 -5.1401,104.8627 -4.99415,-0.8789 -8.45349,-1.4883 -11.62575,-1.4883 -2.66066,0 -5.12085,0.4282 -8.1167,1.4883 -6.68934,2.3575 -9.01802,2.9686 -15.48283,3.9437 11.69632,-9.6307 7.79915,-27.5208 6.3734,-43.9883 -2.06406,-23.8594 -5.10321,-44.8127 -6.6284,-68.9591 -0.77302,-0.247 -2.10575,-0.4811 -3.57481,-0.4811 m 22.55707,111.0709 c 0.45868,2.8788 0.31274,5.8859 0.15236,8.7855 -0.19085,3.2557 -0.43622,6.5209 -0.89651,9.7541 1.78661,-0.0834 3.63095,-0.1283 5.53783,-0.1283 0.70887,0 1.42897,0.007 2.15548,0.0193 0.3015,-3.5011 -0.50038,-7.1528 -1.6968,-10.4133 -0.96707,-2.7505 -2.49868,-6.5931 -5.25236,-8.0173" />
        <path
           id="path3966"
           style="fill:#8b7477;fill-opacity:1;fill-rule:nonzero;stroke:none"
           d="m 40.15047,439.5573 c -0.12509,0.024 -0.24858,0.0481 -0.37368,0.0737 0.24378,0.4315 0.47151,0.8821 0.68481,1.3536 -0.07377,-0.4923 -0.17802,-0.9687 -0.31113,-1.4273" />
        <path
           id="path3968"
           style="fill:#997f82;fill-opacity:1;fill-rule:nonzero;stroke:none"
           d="m 22.30689,428.1192 c -0.87406,0 -1.72566,0.093 -2.53397,0.3047 l 0.24217,0 0.05133,0.003 0.0064,0 c 1.98226,0.0481 3.99019,0.7088 5.83934,1.3824 2.28698,0.8308 4.55151,1.769 6.66208,2.9879 3.08245,1.7785 5.52018,3.8506 7.20254,6.8336 0.1251,-0.0256 0.24859,-0.0497 0.37368,-0.0737 -1.0649,-3.6759 -3.97896,-6.2724 -7.33085,-8.1761 -2.88839,-1.639 -6.88981,-3.262 -10.51273,-3.262" />
        <path
           id="path3970"
           style="fill:#8b7477;fill-opacity:1;fill-rule:nonzero;stroke:none"
           d="m 64.52142,437.4419 c -0.02246,0.2582 -0.05133,0.5164 -0.085,0.773 0.08018,-0.255 0.15235,-0.5116 0.21811,-0.7714 -0.04491,0 -0.08821,-0.002 -0.13311,-0.002 m -7.69331,0.109 0,0 c 0,0.002 0,0.002 0,0.003 0,-0.002 0,-0.003 0,-0.003" />
        <path
           id="path3972"
           style="fill:#997f82;fill-opacity:1;fill-rule:nonzero;stroke:none"
           d="m 55.78406,417.3049 c 0.30151,1.0633 0.55009,2.1042 0.65273,3.214 0.56453,5.626 0.33359,11.3787 0.39132,17.032 0.46029,-3.2332 0.70566,-6.4984 0.89651,-9.7541 0.16038,-2.8996 0.30632,-5.9067 -0.15236,-8.7855 2.75368,1.4242 4.28529,5.2668 5.25236,8.0173 1.19642,3.2605 1.9983,6.9122 1.6968,10.4133 0.0449,0 0.0882,0.002 0.13311,0.002 1.01198,-4.0784 0.05934,-8.8063 -1.39047,-12.6233 -0.76981,-2.0176 -1.79783,-4.0447 -3.28453,-5.6357 -1.19802,-1.2846 -2.49868,-1.7417 -4.19547,-1.8796" />
        <path
           id="path3974"
           style="fill:#8b7477;fill-opacity:1;fill-rule:nonzero;stroke:none"
           d="m 79.15585,438.5517 c -0.6351,1.0745 -1.13387,2.2276 -1.49311,3.4593 0.11868,0.0225 0.23896,0.0465 0.35764,0.069 0.2999,-0.4908 0.60302,-0.9799 0.90613,-1.4691 0.4667,-0.6367 0.96066,-1.2701 1.47868,-1.8892 -0.41859,-0.0593 -0.83557,-0.1155 -1.24934,-0.17" />
        <path
           id="path3976"
           style="fill:#997f82;fill-opacity:1;fill-rule:nonzero;stroke:none"
           d="m 89.86425,431.4726 c -2.81944,0 -5.57312,1.6279 -7.65482,3.3824 -1.23169,1.1066 -2.25169,2.3383 -3.05358,3.6967 0.41377,0.0545 0.83075,0.1107 1.24934,0.17 2.81141,-3.3583 6.375,-6.2964 10.75009,-7.1304 -0.42981,-0.0802 -0.86283,-0.1187 -1.29103,-0.1187" />
        <path
           id="path3978"
           style="fill:#f89c6d;fill-opacity:1;fill-rule:nonzero;stroke:none"
           d="m 50.3633,603.3106 -16.98717,-1.591 c 1.94538,-10.2802 5.11764,-32.061 -1.30226,-38.1281 -3.12736,-2.9557 -9.75415,-6.6011 -16.28953,-7.9996 23.63962,-21.2596 55.63491,-11.8327 52.78821,10.131 -19.37359,-3.8827 -18.20925,20.1996 -18.20925,37.5877" />
        <path
           id="path3980"
           style="fill:#f6b899;fill-opacity:1;fill-rule:nonzero;stroke:none"
           d="m 52.8267,574.595 c -0.0048,0 -0.0096,0 -0.01444,0 -1.12264,3.153 -1.73849,6.885 -2.07368,10.8351 0.0016,0 0.0032,0 0.0048,0.002 0.33839,-3.9517 0.95745,-7.6837 2.0833,-10.8367 m -16.98878,7.1512 -0.0016,0.002 c -0.0866,2.1956 -0.25821,4.428 -0.48113,6.6108 l 0.0016,0 c 0.22453,-2.1844 0.39613,-4.4168 0.48113,-6.6124" />
        <path
           id="path3982"
           style="fill:#f46d41;fill-opacity:1;fill-rule:nonzero;stroke:none"
           d="m 52.81226,574.595 c -5.87141,0.6688 -12.60405,3.8266 -16.84603,7.0582 l -0.12831,0.093 c -0.085,2.1956 -0.2566,4.428 -0.48113,6.6124 6.05585,-2.101 12.02029,-3.2076 13.59359,-3.2092 0.0064,0 0.01443,0.002 0.02085,0.002 0.45066,0.003 1.05207,0.0995 1.76735,0.2791 0.33519,-3.9501 0.95104,-7.6821 2.07368,-10.8351" />
        <path
           id="path3984"
           style="fill:#f03967;fill-opacity:1;fill-rule:nonzero;stroke:none"
           d="m 28.80377,494.5747 c -13.07556,23.5194 -15.20698,60.8664 -15.20698,60.8664 5.77198,2.2004 10.63944,3.0905 10.63944,3.0905 19.62698,-12.8446 41.33726,-2.1442 43.69,7.2314 l 10.02037,0.1668 c 3.23,-10.2305 8.88491,-22.889 9.40774,-30.4589 1.12906,-16.3617 -4.25642,-24.3549 -6.19217,-31.4949 -1.29745,-5.5538 -1.08575,-9.7317 -0.43142,-16.9005 4.23717,-9.8167 10.72604,-32.2535 12.87189,-38.7777 -15.65604,-12.5254 -62.55038,-7.9563 -75.31962,0 6.60915,20.9197 13.33698,36.9686 10.52075,46.2769" />
      </g>
    </g>
    <g
       transform="matrix(1.8922193,0,0,-1.8922193,235.23798,1283.2573)"
       id="g3986">
      <g
         clip-path="url(#clipPath3990)"
         id="g3988">
        <g
           clip-path="url(#clipPath3996)"
           id="g3994">
          <path
             id="path4000"
             style="fill:#ee2851;fill-opacity:1;fill-rule:nonzero;stroke:none"
             d="m 93.60264,448.2978 c -4.26924,10.5609 -13.27604,32.1878 -27.48066,32.1878 -1.4899,0 -3.03434,-0.2374 -4.63811,-0.7506 -7.90981,-2.5275 -23.79679,-6.8321 -29.42764,-13.1846 -5.11925,-5.7816 -7.09349,-7.3501 -13.77321,-18.2526 3.00707,9.5168 6.03821,18.028 8.18406,25.3525 11.86311,2.2276 32.02415,7.8248 48.00575,18.3985 1.94698,-0.3913 3.94047,-0.7939 5.93877,-1.174 0.08661,-1.1772 0.19406,-2.4345 0.31915,-3.7993 4.23717,-9.8167 10.72604,-32.2535 12.87189,-38.7777 m -64.03066,44.3604 0,0 -0.0064,0.0176 -0.0016,0 c -0.25981,0.6432 -0.5116,1.2718 -0.75858,1.8909 0,0.003 -0.0016,0.006 -0.0016,0.008 -0.0016,0.002 -0.0016,0.003 -0.0032,0.005 -7.27793,18.2927 -8.89774,26.6339 -10.72604,32.2808 -0.10104,2.4056 -0.43783,5.4272 -0.88528,8.5978 2.47622,-6.468 5.94198,-12.4469 12.38273,-15.5165 1.35038,-0.6431 3.5684,-0.9206 6.35415,-0.9206 13.28406,0 39.45604,6.3301 45.66745,9.658 4.40236,2.3575 3.11934,14.9648 -1.02,29.0443 3.79934,-11.6707 9.42699,-30.4124 4.4601,-37.0135 0.03689,-0.2037 0.07217,-0.4009 0.10585,-0.5918 -1.87,-2.9237 -5.27962,-8.9859 -7.08868,-12.9617 0,0 0.0016,0 0.008,0 -16.00406,-0.8195 -39.2251,-5.9532 -43.54085,-7.7959 0,0 -2.94934,-3.9293 -4.94604,-6.7022" />
          <path
             id="path4002"
             style="fill:#f89c6d;fill-opacity:1;fill-rule:nonzero;stroke:none"
             d="m 80.06519,508.2517 c -17.47632,-12.8366 -32.04981,-7.7286 -50.49321,-15.5935 -7.93868,19.6366 -9.6066,28.3611 -11.49745,34.2021 -0.39934,9.4911 -4.47774,28.5808 -4.47774,28.5808 C 0.3416038,552.6041 -0.6415094,541.1531 5.460849,516.6426 9.84717,499.0348 17.02245,481.0292 22.87623,473.036 c 14.82849,2.2598 51.40254,11.6996 67.63915,33.7402 -0.57095,1.3151 -9.32755,0.4491 -10.45019,1.4755" />
        </g>
      </g>
    </g>
    <g
       transform="matrix(1.8922193,0,0,-1.8922193,235.23798,1283.2573)"
       id="g4004">
      <g
         clip-path="url(#clipPath4008)"
         id="g4006">
        <path
           id="path4012"
           style="fill:#ea2335;fill-opacity:1;fill-rule:nonzero;stroke:none"
           d="m 29.57198,492.6582 c -0.0032,0.005 -0.0048,0.0112 -0.008,0.0176 l 0.0016,0 0.0064,-0.0176" />
        <path
           id="path4014"
           style="fill:#f46d41;fill-opacity:1;fill-rule:nonzero;stroke:none"
           d="m 24.82962,473.3568 c 10.38925,1.9935 37.05359,10.641 36.2533,14.774 -0.85801,4.4296 -24.24264,4.3558 -31.84773,4.3895 l 0.32877,0.1555 c 0.0032,-0.006 0.0048,-0.0128 0.008,-0.0176 7.36934,1.206 14.78038,2.1426 22.42717,2.1426 4.19227,0 8.45349,-0.2822 12.82217,-0.9526 2.90443,-0.4458 6.20179,-1.1066 9.64991,-1.7994 -16.745,-11.0789 -38.07198,-16.6921 -49.64161,-18.692" />
        <path
           id="path4016"
           style="fill:#f89c6d;fill-opacity:1;fill-rule:nonzero;stroke:none"
           d="m 95.33151,546.0623 c -4.17462,20.0263 -12.2416,20.4096 -17.38491,19.8675 1.955,-7.1817 13.58397,-36.5853 7.08708,-45.22 1.56849,-8.8464 1.50915,-6.2723 3.6534,-13.9336 -13.15416,2.4779 -48.72265,-5.0887 -54.16906,-7.4158 0,0 -2.94934,-3.9293 -4.94604,-6.7022 11.41085,1.8684 22.91472,3.0857 35.24934,1.19 11.47981,-1.7625 29.09566,-6.8674 37.86028,-4.1586 2.8162,19.2517 -4.93641,44.7886 -7.35009,56.3727" />
        <path
           id="path4018"
           style="fill:#f46d41;fill-opacity:1;fill-rule:nonzero;stroke:none"
           d="m 88.68708,506.7762 0.25179,0.2422 -0.0032,0.0289 c 0,0.003 0,0.006 0.0016,0.01 1.96944,2.0352 6.90104,3.4689 10.77255,5.432 0.06896,0.3704 2.52759,1.8138 -1.07453,2.3158 1.43222,0.2229 2.43612,0.5661 2.43612,0.5661 0.2999,0.1668 0.5373,0.332 0.7217,0.4908 0.3127,-2.0111 0.5902,-4.0431 0.8179,-6.0799 -5.55383,-0.1716 -12.85421,-2.0753 -13.92392,-3.0055 m -3.50265,13.4108 c 1.57331,3.5042 7.34849,5.2748 14.79,5.5779 0.18287,-0.8741 0.36247,-1.7593 0.53727,-2.6526 -1.1034,0.0962 -2.64302,0.1603 -4.31095,0.1603 -3.94688,0 -8.60905,-0.3608 -9.89207,-1.5251 -0.19726,-0.1797 -0.5966,-0.741 -1.12425,-1.5605" />
        <path
           id="path4020"
           style="fill:#f89c6d;fill-opacity:1;fill-rule:nonzero;stroke:none"
           d="m 102.17,522.8364 c -0.7955,0.518 -13.59519,0.9655 -15.86132,-1.0889 -0.90132,-0.818 -5.91793,-9.4495 -8.25783,-14.5912 0,0 7.61472,0.1171 10.63623,-0.3801 1.77056,2.1876 6.97641,3.6614 11.02273,5.7127 0.06896,0.3704 2.52759,1.8138 -1.07453,2.3158 1.43222,0.2229 2.43612,0.5661 2.43612,0.5661 2.2758,1.2718 0.9655,2.3736 0.4282,2.3849 1.1756,0.5565 3.5796,2.3719 0.3577,3.1129 0.858,0.4458 0.9253,1.5653 0.3127,1.9678" />
      </g>
    </g>
    <g
       transform="matrix(1.8922193,0,0,-1.8922193,235.23798,1283.2573)"
       id="g4022">
      <g
         clip-path="url(#clipPath4026)"
         id="g4024">
        <g
           id="g4030">
          <g
             id="g4036">
            <path
               id="path4044"
               style="fill:url(#linearGradient5543);stroke:none"
               d="m 0,132 595,0 0,578 -595,0 0,-578 z" />
          </g>
        </g>
      </g>
    </g>
    <g
       transform="matrix(1.8922193,0,0,-1.8922193,235.23798,1283.2573)"
       id="g4046">
      <g
         clip-path="url(#clipPath4050)"
         id="g4048">
        <g
           id="g4054">
          <g
             id="g4060">
            <path
               id="path4068"
               style="fill:url(#linearGradient4062);stroke:none"
               d="m 0,132 595,0 0,578 -595,0 0,-578 z" />
          </g>
        </g>
      </g>
    </g>
    <g
       transform="matrix(1.8922193,0,0,-1.8922193,235.23798,1283.2573)"
       id="g4070">
      <g
         clip-path="url(#clipPath4074)"
         id="g4072">
        <g
           id="g4078">
          <g
             id="g4084">
            <path
               id="path4092"
               style="fill:url(#linearGradient5545);stroke:none"
               d="m 0,132 595,0 0,578 -595,0 0,-578 z" />
          </g>
        </g>
      </g>
    </g>
    <g
       transform="matrix(1.8922193,0,0,-1.8922193,235.23798,1283.2573)"
       id="g4094">
      <g
         clip-path="url(#clipPath4098)"
         id="g4096">
        <path
           id="path4102"
           style="fill:#f89c6d;fill-opacity:1;fill-rule:nonzero;stroke:none"
           d="m 69.34075,634.7092 c -3.77207,3.6005 -14.96801,8.8769 -23.97641,12.0091 -9.05651,-5.3662 -16.91179,-6.3894 -24.62113,-15.6913 -4.47613,-5.4047 -2.50991,-30.337 1.60858,-35.2381 5.77038,-6.8658 23.77915,-10.6571 26.61944,-10.6379 3.39679,0.0257 15.33688,5.3358 20.51386,11.6659 0,0 7.3517,30.7379 -0.14434,37.8923" />
        <path
           id="path4104"
           style="fill:#f68859;fill-opacity:1;fill-rule:nonzero;stroke:none"
           d="m 28.09009,591.4827 c -1.27981,0.6897 -2.4682,1.4306 -3.50424,2.2213 -2.08972,4.784 -3.4016,9.2858 -3.98057,13.5262 0.41538,-0.7041 0.91095,-1.352 1.47066,-1.931 0.66717,-5.6789 2.40887,-11.2745 6.01415,-13.8165 m 37.56359,1.6728 c 2.24207,3.4946 3.52028,7.921 4.08481,12.4741 0.33359,0.2422 0.65434,0.5036 0.95745,0.7827 -0.44585,-3.7962 -1.31349,-7.6083 -2.65905,-11.1719 -0.72972,-0.7169 -1.53321,-1.4129 -2.38321,-2.0849 m -44.84632,25.0012 c 1.67755,8.9025 7.17528,16.49 15.8966,23.0655 7.14321,-4.2276 20.07123,-7.9932 27.55604,-10.4614 -7.00528,3.7367 -15.13321,8.8271 -17.96708,12.6345 7.03255,-2.4682 17.58699,-5.7928 21.93802,-15.3866 0.74415,-1.6407 1.35519,-3.5428 1.81548,-5.6277 -0.46991,0.3625 -0.97029,0.6832 -1.49472,0.9607 -0.96066,3.2893 -2.28859,5.5523 -3.73038,5.9741 -4.68141,2.226 -14.72906,3.5042 -27.63462,10.8543 -6.6717,-5.3021 -12.10047,-11.1687 -14.41793,-19.6623 -0.01443,-0.0401 -0.02726,-0.0786 -0.04009,-0.1186 -0.74415,-0.6512 -1.39047,-1.4034 -1.92132,-2.2325" />
      </g>
    </g>
    <g
       transform="matrix(1.8922193,0,0,-1.8922193,235.23798,1283.2573)"
       id="g4106">
      <g
         clip-path="url(#clipPath4110)"
         id="g4108">
        <g
           id="g4114">
          <g
             id="g4120">
            <path
               id="path4128"
               style="fill:url(#radialGradient4122);stroke:none"
               d="m 0,132 595,0 0,578 -595,0 0,-578 z" />
          </g>
        </g>
      </g>
    </g>
    <g
       transform="matrix(1.8922193,0,0,-1.8922193,235.23798,1283.2573)"
       id="g4130">
      <g
         clip-path="url(#clipPath4134)"
         id="g4132">
        <g
           id="g4138">
          <g
             id="g4144">
            <path
               id="path4152"
               style="fill:url(#radialGradient4146);stroke:none"
               d="m 0,132 595,0 0,578 -595,0 0,-578 z" />
          </g>
        </g>
      </g>
    </g>
    <g
       transform="matrix(1.8922193,0,0,-1.8922193,235.23798,1283.2573)"
       id="g4154">
      <g
         clip-path="url(#clipPath4158)"
         id="g4156">
        <g
           id="g4162">
          <g
             id="g4168">
            <path
               id="path4176"
               style="fill:url(#radialGradient4170);stroke:none"
               d="m 0,132 595,0 0,578 -595,0 0,-578 z" />
          </g>
        </g>
      </g>
    </g>
    <g
       transform="matrix(1.8922193,0,0,-1.8922193,235.23798,1283.2573)"
       id="g4178">
      <g
         clip-path="url(#clipPath4182)"
         id="g4180">
        <g
           id="g4186">
          <g
             id="g4192">
            <path
               id="path4200"
               style="fill:url(#radialGradient4194);stroke:none"
               d="m 0,132 595,0 0,578 -595,0 0,-578 z" />
          </g>
        </g>
      </g>
    </g>
    <g
       transform="matrix(1.8922193,0,0,-1.8922193,235.23798,1283.2573)"
       id="g4202">
      <g
         clip-path="url(#clipPath4206)"
         id="g4204">
        <path
           id="path4210"
           style="fill:#e63d33;fill-opacity:1;fill-rule:nonzero;stroke:none"
           d="m 55.72792,599.7726 c -0.46349,-0.3817 -1.32471,-4.2034 -7.45754,-4.7616 -5.92434,-0.542 -10.05727,4.0223 -11.08368,4.582 0.4266,-0.17 2.04802,-0.6319 2.6799,-0.7618 2.51793,0.1652 15.86132,0.9414 15.86132,0.9414" />
        <path
           id="path4212"
           style="fill:#da322d;fill-opacity:1;fill-rule:nonzero;stroke:none"
           d="m 36.91406,601.4967 c 1.12745,-3.3583 6.79037,-0.7233 12.65217,-0.2983 4.24198,0.3015 6.40386,-1.368 7.31,0.3352 0.02726,-0.2919 0.1299,-1.3151 -0.90614,-1.7032 -5.37264,-1.5252 -10.285,-2.0913 -16.07141,-1.3263 -0.85,0.2517 -5.74793,0.6527 -2.98462,2.9926" />
        <path
           id="path4214"
           style="fill:#f1532c;fill-opacity:1;fill-rule:nonzero;stroke:none"
           d="m 48.52057,605.9039 c -0.87887,0 -1.74651,0.1267 -2.58849,0.3624 5.13207,0.5549 6.77273,2.9558 6.84169,3.2829 -0.61905,0.9559 -3.07924,3.7561 -2.55962,6.9829 0.94462,-3.4369 3.06,-5.4817 3.7801,-6.1008 0.08018,-0.2117 0.16679,-0.4218 0.2582,-0.6255 0,-1.0376 -0.6367,-2.0528 -1.35358,-2.6109 -0.75217,-0.5725 -1.55406,-0.8821 -2.34151,-1.0649 -0.68321,-0.1524 -1.36321,-0.2261 -2.03679,-0.2261" />
      </g>
    </g>
    <g
       transform="matrix(1.8922193,0,0,-1.8922193,235.23798,1283.2573)"
       id="g4216">
      <g
         clip-path="url(#clipPath4220)"
         id="g4218">
        <g
           id="g4224">
          <g
             id="g4230">
            <path
               id="path4238"
               style="fill:url(#radialGradient4232);stroke:none"
               d="m 0,132 595,0 0,578 -595,0 0,-578 z" />
          </g>
        </g>
      </g>
    </g>
    <g
       transform="matrix(1.8922193,0,0,-1.8922193,235.23798,1283.2573)"
       id="g4240">
      <g
         clip-path="url(#clipPath4244)"
         id="g4242">
        <path
           id="path4248"
           style="fill:#f8e8c6;fill-opacity:1;fill-rule:nonzero;stroke:none"
           d="m 64.75717,624.6087 c -5.67255,0.7457 -9.04368,-6.2323 -9.04368,-6.2323 2.89,-1.5492 8.39415,-1.1499 10.78538,0.4988 1.98226,1.368 3.36151,3.3583 -1.7417,5.7335" />
        <path
           id="path4250"
           style="fill:#838723;fill-opacity:1;fill-rule:nonzero;stroke:none"
           d="m 65.16292,621.7636 c 0.06897,0.9703 -0.25179,1.878 -0.82754,2.5756 -2.52755,0.2679 -4.82255,-1.0119 -6.41029,-2.2789 -0.02084,-1.8973 1.42095,-3.5075 3.34387,-3.6518 1.99991,-0.1476 3.74321,1.3536 3.89396,3.3551" />
        <path
           id="path4252"
           style="fill:#3d1d15;fill-opacity:1;fill-rule:nonzero;stroke:none"
           d="m 63.89274,621.8566 c -0.09783,-1.2974 -1.2301,-2.2758 -2.53076,-2.1763 -1.29745,0.0946 -2.27415,1.2285 -2.17792,2.5275 0.09462,1.2975 1.23009,2.2742 2.52754,2.1796 1.29746,-0.0963 2.27736,-1.2301 2.18114,-2.5308" />
        <path
           id="path4254"
           style="fill:#f8e8c6;fill-opacity:1;fill-rule:nonzero;stroke:none"
           d="m 66.06906,620.4164 c -0.05132,-0.688 -0.65114,-1.206 -1.33915,-1.1563 -0.68963,0.0513 -1.20765,0.6495 -1.15633,1.3407 0.04972,0.6881 0.64953,1.2061 1.34397,1.1532 0.68481,-0.0498 1.20122,-0.6496 1.15151,-1.3376" />
        <path
           id="path4256"
           style="fill:#3d1d15;fill-opacity:1;fill-rule:nonzero;stroke:none"
           d="m 67.35208,623.7972 c -0.54368,0.5052 -1.19,0.8788 -1.87802,1.1306 -1.36161,0.502 -2.86755,0.6624 -4.39755,0.2069 -1.4033,-0.4827 -2.64783,-1.3151 -3.59245,-2.4105 -0.94302,-1.0793 -1.58934,-2.4345 -1.70481,-3.8169 0.79707,1.1402 1.65509,2.0801 2.62858,2.8627 0.98311,0.765 2.06245,1.3905 3.19632,1.769 1.03604,0.3544 2.31745,0.3352 3.52028,0.1443 1.16755,-0.2534 2.48585,-0.5741 3.09689,-1.8251 0.085,0.7073 -0.3384,1.4434 -0.86924,1.939" />
        <path
           id="path4258"
           style="fill:#ad3520;fill-opacity:1;fill-rule:nonzero;stroke:none"
           d="m 67.10991,631.7936 c -1.32793,0.5308 -2.76812,0.7008 -4.19066,0.595 -1.41293,-0.1363 -2.83227,-0.5549 -4.03189,-1.3504 -1.19962,-0.7746 -2.17632,-1.9518 -2.51953,-3.2861 1.90047,1.9566 4.2516,2.7456 6.69575,2.9589 1.21406,0.1155 2.45378,0.0482 3.66623,-0.1796 1.21566,-0.2438 2.40245,-0.6431 3.53953,-1.4097 -0.61104,1.2493 -1.85076,2.1555 -3.15943,2.6719" />
        <path
           id="path4260"
           style="fill:#f8e8c6;fill-opacity:1;fill-rule:nonzero;stroke:none"
           d="m 34.02085,624.8108 c -3.94528,0.8307 -8.45189,-0.7538 -8.93462,-4.04 3.58283,-4.3125 8.52405,-4.537 15.3016,-2.226 0.08821,3.3535 -3.52189,5.6661 -6.36698,6.266" />
        <path
           id="path4262"
           style="fill:#838723;fill-opacity:1;fill-rule:nonzero;stroke:none"
           d="m 32.48604,619.0003 c 1.92773,0.5517 3.04236,2.5644 2.48585,4.4922 -0.23736,0.8355 -0.7618,1.5027 -1.42255,1.963 -2.14906,-0.1027 -4.22594,-0.8516 -5.57472,-2.0817 -0.15236,-0.5998 -0.16839,-1.2478 0.01283,-1.8861 0.55491,-1.9325 2.56604,-3.0455 4.49859,-2.4874" />
        <path
           id="path4264"
           style="fill:#3d1d15;fill-opacity:1;fill-rule:nonzero;stroke:none"
           d="m 33.7466,623.1396 c 0.36085,-1.2525 -0.35924,-2.5612 -1.61179,-2.9172 -1.25575,-0.3609 -2.56443,0.364 -2.92368,1.615 -0.35924,1.2525 0.36887,2.5612 1.61821,2.9204 1.25415,0.3593 2.55962,-0.3624 2.91726,-1.6182" />
        <path
           id="path4266"
           style="fill:#f8e8c6;fill-opacity:1;fill-rule:nonzero;stroke:none"
           d="m 36.29179,622.5414 c 0.19246,-0.6639 -0.19405,-1.3552 -0.85641,-1.5476 -0.66076,-0.1909 -1.3568,0.194 -1.54604,0.858 -0.19245,0.6607 0.19245,1.3584 0.85321,1.5476 0.66717,0.1893 1.35839,-0.1956 1.54924,-0.858" />
        <path
           id="path4268"
           style="fill:#3d1d15;fill-opacity:1;fill-rule:nonzero;stroke:none"
           d="m 38.51623,623.8854 c -1.45463,1.2381 -3.33585,1.8122 -5.17057,1.9502 -1.84594,0.0994 -3.71755,-0.2085 -5.38387,-1.0537 -0.82434,-0.4202 -1.59736,-0.9863 -2.18113,-1.7369 -0.58057,-0.7409 -0.90453,-1.7353 -0.69123,-2.6077 0.37208,1.7705 1.91972,2.6109 3.39359,3.1337 1.51717,0.4956 3.15943,0.6961 4.75198,0.5838 1.58934,-0.093 3.16264,-0.5004 4.505,-1.3247 1.33755,-0.8227 2.38,-2.1394 3.03434,-3.7737 0.04811,1.7561 -0.78585,3.6229 -2.25811,4.829" />
        <path
           id="path4270"
           style="fill:#ad3520;fill-opacity:1;fill-rule:nonzero;stroke:none"
           d="m 37.49623,631.5001 c -1.37604,0.8275 -2.97821,1.2397 -4.56915,1.3151 -1.59897,0.0401 -3.22038,-0.2502 -4.65576,-0.9719 -1.42255,-0.6944 -2.70717,-1.8764 -3.18509,-3.3535 1.07934,1.0826 2.35273,1.7241 3.67585,2.1378 1.33594,0.3898 2.72481,0.5678 4.10566,0.5004 2.76651,-0.0914 5.45603,-1.0168 7.66764,-3.1193 -0.52925,1.4402 -1.66953,2.6815 -3.03915,3.4914" />
      </g>
    </g>
    <g
       transform="matrix(1.8922193,0,0,-1.8922193,235.23798,1283.2573)"
       id="g4272">
      <g
         clip-path="url(#clipPath4276)"
         id="g4274">
        <g
           clip-path="url(#clipPath4282)"
           id="g4280">
          <g
             id="g4286">
            <g
               id="g4292">
              <path
                 id="path4300"
                 style="fill:url(#linearGradient4294);stroke:none"
                 d="m 0,132 595,0 0,578 -595,0 0,-578 z" />
            </g>
          </g>
        </g>
      </g>
    </g>
    <g
       transform="matrix(1.8922193,0,0,-1.8922193,235.23798,1283.2573)"
       id="g4302">
      <g
         clip-path="url(#clipPath4306)"
         id="g4304">
        <g
           id="g4310">
          <g
             id="g4316">
            <path
               id="path4324"
               style="fill:url(#linearGradient4318);stroke:none"
               d="m 0,132 595,0 0,578 -595,0 0,-578 z" />
          </g>
        </g>
      </g>
    </g>
  </g>
</svg>
